<svg id="encarga.shop_uno_debajo_del_otro" data-name="encarga.shop uno debajo del otro" xmlns="http://www.w3.org/2000/svg" width="614" height="171.754" viewBox="0 0 614 171.754">
  <defs>
    <style>
      .cls-1 {
        fill: #211c1c;
      }

      .cls-1, .cls-2 {
        fill-rule: evenodd;
      }

      .cls-2 {
        fill: #fc453c;
      }
    </style>
  </defs>
  <path id="encarga" class="cls-1" d="M1247.53,945a53.047,53.047,0,0,0,11.32-4.8l-9.3-15.6a36.064,36.064,0,0,1-6.37,3.15,19.012,19.012,0,0,1-6.68,1.2,18.031,18.031,0,0,1-8.7-2.1,15.046,15.046,0,0,1-6.15-6.225,21.243,21.243,0,0,1-2.25-10.275,21.638,21.638,0,0,1,1.88-9.375,13.989,13.989,0,0,1,5.4-6.15,15.225,15.225,0,0,1,8.17-2.175q6.15,0,9.23,2.925a15.742,15.742,0,0,1,4.27,6.825l4.35-1.95-36.9,12.45,4.65,11.4,51-16.2q-2.7-15.447-11.77-23.625-9.09-8.174-23.18-8.175a38.718,38.718,0,0,0-19.05,4.725A37.422,37.422,0,0,0,1203.8,893.7a32.359,32.359,0,0,0-5.1,17.85,37.506,37.506,0,0,0,4.35,18.3,30.734,30.734,0,0,0,12.68,12.45q8.325,4.5,20.32,4.5A40.482,40.482,0,0,0,1247.53,945Zm34.72-65.55V945h21V918.3a36.57,36.57,0,0,1,1.95-12.45,20.193,20.193,0,0,1,5.55-8.55,12.36,12.36,0,0,1,8.4-3.15q5.1,0,7.27,2.625a11.225,11.225,0,0,1,2.33,6.975V945h21V895.95a18.464,18.464,0,0,0-6.38-14.175q-6.225-5.473-15.52-5.475-9.15,0-15.45,3.825a27.018,27.018,0,0,0-9.75,9.975l0.3,1.05-1.65-11.7h-19.05ZM1412,925.95a14.833,14.833,0,0,1-5.03,2.775,19.962,19.962,0,0,1-6.37.975,18.237,18.237,0,0,1-9.38-2.325A16.558,16.558,0,0,1,1385,921a17.914,17.914,0,0,1-2.25-8.85,18.7,18.7,0,0,1,2.1-9,16.107,16.107,0,0,1,5.7-6.15,14.7,14.7,0,0,1,7.95-2.25,20.121,20.121,0,0,1,8.62,1.725,30.574,30.574,0,0,1,5.78,3.375l10.2-13.5a37.246,37.246,0,0,0-11.18-6.3,44.544,44.544,0,0,0-15.37-2.4,36.991,36.991,0,0,0-16.88,4.05,32.652,32.652,0,0,0-12.97,11.775q-4.95,7.728-4.95,18.675t4.57,18.675a30.2,30.2,0,0,0,12.9,11.85,43.639,43.639,0,0,0,19.58,4.125,41.71,41.71,0,0,0,12.82-2.1,34.159,34.159,0,0,0,10.88-5.55Zm59.92,19.125a28.741,28.741,0,0,0,7.2-4.05,34.142,34.142,0,0,0,4.43-4.05,6.046,6.046,0,0,1,1.8-1.725l-1.65-4.5V945h21V879.45h-19.5l-1.95,9.6,0.9-2.55a36.985,36.985,0,0,0-8.33-7.125q-5.025-3.224-14.77-3.225a29.751,29.751,0,0,0-15.6,4.425A32.912,32.912,0,0,0,1433.6,893.1q-4.5,8.1-4.5,19.2,0,11.852,4.35,19.5a27.31,27.31,0,0,0,11.77,11.325,36.887,36.887,0,0,0,16.58,3.675A27,27,0,0,0,1471.92,945.075ZM1459.17,927.3a17.847,17.847,0,0,1-6.37-6.6,20.068,20.068,0,0,1-.15-18.75,16.931,16.931,0,0,1,6.07-6.375,15.759,15.759,0,0,1,8.33-2.325,20.289,20.289,0,0,1,7.35,1.275,16.9,16.9,0,0,1,5.7,3.6,14.976,14.976,0,0,1,3.6,5.625V919.8a20.067,20.067,0,0,1-3.9,5.475,15.072,15.072,0,0,1-5.25,3.3,19.192,19.192,0,0,1-6.75,1.125A16.394,16.394,0,0,1,1459.17,927.3Zm62.63-47.85V945h20.85V919.35a23.512,23.512,0,0,1,2.85-11.1,22.42,22.42,0,0,1,8.1-8.7q5.25-3.3,12.6-2.4l1.05-21c-1.71,0-4.18.75-7.43,2.25a44.875,44.875,0,0,0-9.82,6.375,29.741,29.741,0,0,0-7.8,9.975l0.45,2.7-1.95-18h-18.9Zm107.62,94.275a37.217,37.217,0,0,0,14.33-11.7,28.2,28.2,0,0,0,5.4-17.025V879.45H1629.8l-2.25,7.2,0.75-1.95a24.019,24.019,0,0,0-9.38-6.075,39.891,39.891,0,0,0-14.77-2.475,30.709,30.709,0,0,0-16.2,4.65,36.455,36.455,0,0,0-12.45,12.675,35.009,35.009,0,0,0-4.8,18.375,35.478,35.478,0,0,0,4.5,17.925,33.928,33.928,0,0,0,12.07,12.45,31.2,31.2,0,0,0,16.43,4.575q10.2,0,16.5-3.825t8.7-8.925l-0.75-3.75v14.4a12.841,12.841,0,0,1-2.63,8.25,16.528,16.528,0,0,1-6.9,5.025,24.433,24.433,0,0,1-9.22,1.725q-7.515,0-12.08-2.925a58.969,58.969,0,0,1-8.02-6.075L1577,965.1c2.19,1.8,4.7,3.7,7.5,5.7a40.1,40.1,0,0,0,10.27,5.1,46.081,46.081,0,0,0,14.93,2.1A45.045,45.045,0,0,0,1629.42,973.725Zm-35.17-71.775a17.291,17.291,0,0,1,6.52-6.375,18.488,18.488,0,0,1,9.23-2.325,23.045,23.045,0,0,1,7.87,1.275,19.783,19.783,0,0,1,6.23,3.6,14.663,14.663,0,0,1,4.05,5.625V919.8a18.028,18.028,0,0,1-10.43,8.775A24.364,24.364,0,0,1,1610,929.7a18.014,18.014,0,0,1-9.23-2.4,17.486,17.486,0,0,1-6.52-6.6,18.694,18.694,0,0,1-2.4-9.45A17.9,17.9,0,0,1,1594.25,901.95Zm109.72,43.125a28.741,28.741,0,0,0,7.2-4.05,34.823,34.823,0,0,0,4.43-4.05,6.046,6.046,0,0,1,1.8-1.725l-1.65-4.5V945h21V879.45h-19.5l-1.95,9.6,0.9-2.55a37.207,37.207,0,0,0-8.33-7.125q-5.025-3.224-14.77-3.225a29.725,29.725,0,0,0-15.6,4.425,32.837,32.837,0,0,0-11.85,12.525q-4.5,8.1-4.5,19.2,0,11.852,4.35,19.5a27.256,27.256,0,0,0,11.77,11.325,36.857,36.857,0,0,0,16.58,3.675A27,27,0,0,0,1703.97,945.075ZM1691.22,927.3a17.847,17.847,0,0,1-6.37-6.6,18.593,18.593,0,0,1-2.4-9.45,18.831,18.831,0,0,1,2.25-9.3,16.931,16.931,0,0,1,6.07-6.375,15.759,15.759,0,0,1,8.33-2.325,20.328,20.328,0,0,1,7.35,1.275,17,17,0,0,1,5.7,3.6,14.976,14.976,0,0,1,3.6,5.625V919.8a20.067,20.067,0,0,1-3.9,5.475,15.164,15.164,0,0,1-5.25,3.3,19.192,19.192,0,0,1-6.75,1.125A16.369,16.369,0,0,1,1691.22,927.3Z" transform="translate(-1198.69 -876.156)"/>
  <path id="_._" data-name=". " class="cls-2" d="M1597.5,1018a10.99,10.99,0,0,0,3.75,8.75,12.3,12.3,0,0,0,8.25,3.25,11.927,11.927,0,0,0,7.92-3.25,10.99,10.99,0,0,0,3.75-8.75,11.4,11.4,0,0,0-3.75-8.67,11.52,11.52,0,0,0-7.92-3.5,11.863,11.863,0,0,0-8.25,3.5,11.4,11.4,0,0,0-3.75,8.67h0Z" transform="translate(-1198.69 -876.156)"/>
  <path id="shop" class="cls-1" d="M1663.63,1029.31a12.543,12.543,0,0,0,5.17-4.79,12.368,12.368,0,0,0,1.71-6.29,9.345,9.345,0,0,0-4-8.08,15.179,15.179,0,0,0-4.58-2.25c-1.28-.45-2.59-0.84-3.92-1.17a9.5,9.5,0,0,1-3.29-1.42,2.7,2.7,0,0,1-1.21-2.5,2.088,2.088,0,0,1,.58-1.41,4.13,4.13,0,0,1,1.63-1.09,6.07,6.07,0,0,1,2.54-.329,10.319,10.319,0,0,1,3.62.959,16.684,16.684,0,0,1,3.55,2.12l4.41-6.829a19.072,19.072,0,0,0-6-3,28.2,28.2,0,0,0-7.75-.917,16.28,16.28,0,0,0-8.29,1.875,11.776,11.776,0,0,0-6.12,10.211,11.034,11.034,0,0,0,2.2,6.62q2.22,3.045,7.21,4.63c1.34,0.39,2.59.76,3.75,1.12a9.419,9.419,0,0,1,2.88,1.38,2.637,2.637,0,0,1,1.12,2.25,2.125,2.125,0,0,1-.66,1.62,4.145,4.145,0,0,1-1.8.92,10.314,10.314,0,0,1-2.54.29,10.19,10.19,0,0,1-4.12-1.04,20.158,20.158,0,0,1-4.96-3.46l-4.83,6.42a18.168,18.168,0,0,0,6.54,4.41,21.81,21.81,0,0,0,8.37,1.59A18.541,18.541,0,0,0,1663.63,1029.31Zm25.8,1.09v-14.84a20.336,20.336,0,0,1,1.08-6.91,11.182,11.182,0,0,1,3.08-4.75,6.867,6.867,0,0,1,4.67-1.75c1.89,0,3.23.48,4.04,1.46a6.155,6.155,0,0,1,1.29,3.87v22.92h11.67v-27.25a10.289,10.289,0,0,0-3.54-7.878,12.6,12.6,0,0,0-8.63-3.041,16.228,16.228,0,0,0-8.58,2.125,15.057,15.057,0,0,0-5.42,5.541l0.09,1.413V964.647h-11.42V1030.4h11.67Zm35.16-8.09a17.456,17.456,0,0,0,7.38,6.75,23.679,23.679,0,0,0,10.7,2.34,21.964,21.964,0,0,0,11-2.59,17.879,17.879,0,0,0,7.05-7.04,20.531,20.531,0,0,0,2.45-10.04,20.321,20.321,0,0,0-2.45-10,17.7,17.7,0,0,0-7.05-6.958,21.962,21.962,0,0,0-10.83-2.541,22.813,22.813,0,0,0-10.92,2.541,18.615,18.615,0,0,0-7.37,6.958,19.219,19.219,0,0,0-2.63,10A20.058,20.058,0,0,0,1724.59,1022.31Zm10.25-15.66a9.437,9.437,0,0,1,3.17-3.59,7.981,7.981,0,0,1,4.5-1.33,8.454,8.454,0,0,1,4.75,1.33,8.831,8.831,0,0,1,3.08,3.59,12.8,12.8,0,0,1,0,10.29,8.665,8.665,0,0,1-3.08,3.62,8.381,8.381,0,0,1-4.75,1.34,7.912,7.912,0,0,1-4.5-1.34,9.241,9.241,0,0,1-3.17-3.62A11.9,11.9,0,0,1,1734.84,1006.65Zm68.17,22.5a16.858,16.858,0,0,0,7.08-6.59,20.13,20.13,0,0,0,2.58-10.5,23.123,23.123,0,0,0-2.29-10.7,16.48,16.48,0,0,0-6.29-6.838,17.446,17.446,0,0,0-9.08-2.375,19.481,19.481,0,0,0-8.09,1.584,26.67,26.67,0,0,0-6.33,4l0.92,2.5-1.67-7.083h-10V1047.9h11.58v-24.59l-0.33,3.42a13.8,13.8,0,0,0,5.21,3.46,17.647,17.647,0,0,0,6.37,1.21A22.831,22.831,0,0,0,1803.01,1029.15Zm-16.54-7.63a8.273,8.273,0,0,1-3.05-2.04,9.33,9.33,0,0,1-1.91-3.08v-8.92a10.949,10.949,0,0,1,2.37-3.04,9.272,9.272,0,0,1,3.17-1.83,12.385,12.385,0,0,1,4.12-.63,9.436,9.436,0,0,1,8.38,4.88,10.752,10.752,0,0,1,1.29,5.37,9.51,9.51,0,0,1-1.46,5.21,9.943,9.943,0,0,1-3.83,3.54,11.043,11.043,0,0,1-5.21,1.25A10.443,10.443,0,0,1,1786.47,1021.52Z" transform="translate(-1198.69 -876.156)"/>
</svg>
