<svg id="encarga.shop_uno_debajo_del_otro_CLARO" data-name="encarga.shop uno debajo del otro CLARO" xmlns="http://www.w3.org/2000/svg" width="614.531" height="171.344" viewBox="0 0 614.531 171.344">
  <defs>
    <style>
      .cls-1 {
        fill: #fcfdfa;
      }

      .cls-1, .cls-2 {
        fill-rule: evenodd;
      }

      .cls-2 {
        fill: #fc453c;
      }
    </style>
  </defs>
  <path id="encarga" class="cls-1" d="M286.525,945a53.131,53.131,0,0,0,11.325-4.8l-9.3-15.6a35.8,35.8,0,0,1-6.375,3.15,18.957,18.957,0,0,1-6.675,1.2,18.023,18.023,0,0,1-8.7-2.1,15.034,15.034,0,0,1-6.15-6.225,21.243,21.243,0,0,1-2.25-10.275,21.755,21.755,0,0,1,1.875-9.375,14.1,14.1,0,0,1,5.4-6.15,15.259,15.259,0,0,1,8.175-2.175q6.149,0,9.225,2.925a15.7,15.7,0,0,1,4.275,6.825l4.35-1.95L254.8,912.9l4.65,11.4,51-16.2q-2.7-15.447-11.775-23.625T275.5,876.3a38.716,38.716,0,0,0-19.05,4.725A37.407,37.407,0,0,0,242.8,893.7a32.35,32.35,0,0,0-5.1,17.85,37.484,37.484,0,0,0,4.35,18.3,30.715,30.715,0,0,0,12.675,12.45q8.325,4.5,20.325,4.5A40.449,40.449,0,0,0,286.525,945Zm34.724-65.55V945h21V918.3a36.545,36.545,0,0,1,1.95-12.45,20.184,20.184,0,0,1,5.55-8.55,12.358,12.358,0,0,1,8.4-3.15q5.1,0,7.275,2.625a11.241,11.241,0,0,1,2.325,6.975V945h21V895.95a18.466,18.466,0,0,0-6.375-14.175,22.664,22.664,0,0,0-15.525-5.475q-9.151,0-15.45,3.825a27.01,27.01,0,0,0-9.75,9.975l0.3,1.05-1.65-11.7h-19.05ZM451,925.95a14.818,14.818,0,0,1-5.025,2.775,20,20,0,0,1-6.375.975,18.215,18.215,0,0,1-9.375-2.325A16.564,16.564,0,0,1,424,921a17.914,17.914,0,0,1-2.25-8.85,18.69,18.69,0,0,1,2.1-9,16.1,16.1,0,0,1,5.7-6.15,14.7,14.7,0,0,1,7.95-2.25,20.147,20.147,0,0,1,8.625,1.725,30.577,30.577,0,0,1,5.775,3.375l10.2-13.5a37.23,37.23,0,0,0-11.175-6.3,44.577,44.577,0,0,0-15.375-2.4,36.965,36.965,0,0,0-16.875,4.05A32.658,32.658,0,0,0,405.7,893.475q-4.95,7.728-4.95,18.675t4.575,18.675a30.193,30.193,0,0,0,12.9,11.85A43.617,43.617,0,0,0,437.8,946.8a41.741,41.741,0,0,0,12.825-2.1,34.141,34.141,0,0,0,10.875-5.55Zm59.923,19.125a28.741,28.741,0,0,0,7.2-4.05,34.046,34.046,0,0,0,4.425-4.05,6.288,6.288,0,0,1,1.8-1.725l-1.65-4.5V945h21V879.45H524.2l-1.95,9.6,0.9-2.55a36.954,36.954,0,0,0-8.325-7.125q-5.026-3.224-14.775-3.225a29.774,29.774,0,0,0-15.6,4.425A32.912,32.912,0,0,0,472.6,893.1q-4.5,8.1-4.5,19.2,0,11.852,4.35,19.5a27.321,27.321,0,0,0,11.775,11.325A36.866,36.866,0,0,0,500.8,946.8,27.028,27.028,0,0,0,510.921,945.075ZM498.171,927.3a17.929,17.929,0,0,1-6.375-6.6,20.068,20.068,0,0,1-.15-18.75,16.944,16.944,0,0,1,6.075-6.375,15.742,15.742,0,0,1,8.325-2.325,20.289,20.289,0,0,1,7.35,1.275,16.815,16.815,0,0,1,5.7,3.6,14.759,14.759,0,0,1,3.6,5.625V919.8a19.877,19.877,0,0,1-3.9,5.475,15.072,15.072,0,0,1-5.25,3.3,19.121,19.121,0,0,1-6.75,1.125A16.374,16.374,0,0,1,498.171,927.3ZM560.8,879.45V945h20.85V919.35a23.5,23.5,0,0,1,2.85-11.1,22.555,22.555,0,0,1,8.1-8.7q5.249-3.3,12.6-2.4l1.05-21q-2.552,0-7.425,2.25A44.876,44.876,0,0,0,589,884.775a29.855,29.855,0,0,0-7.8,9.975l0.45,2.7-1.95-18H560.8Zm107.625,94.275a37.208,37.208,0,0,0,14.325-11.7,28.2,28.2,0,0,0,5.4-17.025V879.45H668.8l-2.25,7.2,0.75-1.95a24,24,0,0,0-9.375-6.075,39.923,39.923,0,0,0-14.775-2.475,30.709,30.709,0,0,0-16.2,4.65,36.447,36.447,0,0,0-12.45,12.675,35.093,35.093,0,0,0-4.8,18.375,35.478,35.478,0,0,0,4.5,17.925,33.933,33.933,0,0,0,12.075,12.45A31.2,31.2,0,0,0,642.7,946.8q10.2,0,16.5-3.825t8.7-8.925l-0.75-3.75v14.4a12.844,12.844,0,0,1-2.625,8.25,16.535,16.535,0,0,1-6.9,5.025A24.459,24.459,0,0,1,648.4,959.7q-7.5,0-12.075-2.925A58.907,58.907,0,0,1,628.3,950.7L616,965.1q3.3,2.7,7.5,5.7a40.286,40.286,0,0,0,10.275,5.1A46.086,46.086,0,0,0,648.7,978,45.07,45.07,0,0,0,668.421,973.725ZM633.246,901.95a17.362,17.362,0,0,1,6.525-6.375A18.463,18.463,0,0,1,649,893.25a23.082,23.082,0,0,1,7.875,1.275,19.769,19.769,0,0,1,6.225,3.6,14.663,14.663,0,0,1,4.05,5.625V919.8a18,18,0,0,1-10.425,8.775A24.4,24.4,0,0,1,649,929.7a17.99,17.99,0,0,1-9.225-2.4,17.556,17.556,0,0,1-6.525-6.6,18.684,18.684,0,0,1-2.4-9.45A17.886,17.886,0,0,1,633.246,901.95ZM742.97,945.075a28.723,28.723,0,0,0,7.2-4.05,34.132,34.132,0,0,0,4.426-4.05,6.26,6.26,0,0,1,1.8-1.725l-1.651-4.5V945h21V879.45h-19.5l-1.95,9.6,0.9-2.55a36.954,36.954,0,0,0-8.325-7.125q-5.027-3.224-14.775-3.225a29.774,29.774,0,0,0-15.6,4.425A32.909,32.909,0,0,0,704.646,893.1q-4.5,8.1-4.5,19.2,0,11.852,4.349,19.5a27.318,27.318,0,0,0,11.776,11.325,36.859,36.859,0,0,0,16.574,3.675A27.028,27.028,0,0,0,742.97,945.075ZM730.22,927.3a17.929,17.929,0,0,1-6.375-6.6,20.068,20.068,0,0,1-.15-18.75,16.939,16.939,0,0,1,6.076-6.375,15.736,15.736,0,0,1,8.324-2.325,20.286,20.286,0,0,1,7.35,1.275,16.829,16.829,0,0,1,5.7,3.6,14.769,14.769,0,0,1,3.6,5.625V919.8a19.875,19.875,0,0,1-3.9,5.475,15.081,15.081,0,0,1-5.25,3.3,19.13,19.13,0,0,1-6.751,1.125A16.374,16.374,0,0,1,730.22,927.3Z" transform="translate(-237.688 -876.156)"/>
  <path id="_._" data-name=". " class="cls-2" d="M636.5,1018a10.99,10.99,0,0,0,3.75,8.75,12.3,12.3,0,0,0,8.25,3.25,11.927,11.927,0,0,0,7.917-3.25,10.99,10.99,0,0,0,3.75-8.75,11.4,11.4,0,0,0-3.75-8.67,11.521,11.521,0,0,0-7.917-3.5,11.863,11.863,0,0,0-8.25,3.5,11.4,11.4,0,0,0-3.75,8.67h0Z" transform="translate(-237.688 -876.156)"/>
  <path id="shop" class="cls-1" d="M703.176,1028.92a12.56,12.56,0,0,0,5.167-4.79,12.386,12.386,0,0,0,1.708-6.29,9.882,9.882,0,0,0-1.041-4.71,10.088,10.088,0,0,0-2.959-3.38,15.567,15.567,0,0,0-4.583-2.25c-1.279-.44-2.583-0.83-3.917-1.16a9.874,9.874,0,0,1-3.291-1.42,2.706,2.706,0,0,1-1.209-2.5,2.136,2.136,0,0,1,.584-1.42,4.231,4.231,0,0,1,1.625-1.081,5.969,5.969,0,0,1,2.541-.333,10.311,10.311,0,0,1,3.625.954,17.107,17.107,0,0,1,3.542,2.13l4.417-6.834a19.072,19.072,0,0,0-6-3,28.237,28.237,0,0,0-7.75-.917,16.283,16.283,0,0,0-8.292,1.875,11.763,11.763,0,0,0-4.667,4.667,11.886,11.886,0,0,0-1.458,5.539,11.059,11.059,0,0,0,2.208,6.63q2.208,3.045,7.209,4.62c1.333,0.39,2.583.77,3.75,1.13a9.667,9.667,0,0,1,2.875,1.37,2.667,2.667,0,0,1,1.125,2.25,2.138,2.138,0,0,1-.667,1.63,4.075,4.075,0,0,1-1.792.91,9.875,9.875,0,0,1-2.541.3,10.056,10.056,0,0,1-4.125-1.05,19.8,19.8,0,0,1-4.959-3.45l-4.833,6.41a18.441,18.441,0,0,0,6.542,4.42,22.031,22.031,0,0,0,8.375,1.58A18.7,18.7,0,0,0,703.176,1028.92Zm25.791,1.08v-14.83a20.319,20.319,0,0,1,1.084-6.92,11.23,11.23,0,0,1,3.083-4.75,6.9,6.9,0,0,1,4.667-1.75,4.985,4.985,0,0,1,4.041,1.46,6.251,6.251,0,0,1,1.292,3.88V1030H754.8v-27.25a10.255,10.255,0,0,0-3.542-7.872,12.587,12.587,0,0,0-8.625-3.042,16.249,16.249,0,0,0-8.583,2.125,15,15,0,0,0-5.417,5.542l0.083,1.417V964.253H717.3V1030h11.666Zm35.166-8.08a17.564,17.564,0,0,0,7.375,6.75,23.872,23.872,0,0,0,10.709,2.33,22.091,22.091,0,0,0,11-2.58,17.888,17.888,0,0,0,7.041-7.04,20.449,20.449,0,0,0,2.459-10.04,20.186,20.186,0,0,0-2.459-10,17.682,17.682,0,0,0-7.041-6.962,22,22,0,0,0-10.834-2.542,22.781,22.781,0,0,0-10.916,2.542,18.551,18.551,0,0,0-7.375,6.962,19.165,19.165,0,0,0-2.625,10A20.075,20.075,0,0,0,764.133,1021.92Zm10.25-15.67a9.441,9.441,0,0,1,3.167-3.58,7.918,7.918,0,0,1,4.5-1.33,8.353,8.353,0,0,1,4.75,1.33,8.8,8.8,0,0,1,3.083,3.58,12.752,12.752,0,0,1,0,10.29,8.755,8.755,0,0,1-3.083,3.63,8.353,8.353,0,0,1-4.75,1.33,7.918,7.918,0,0,1-4.5-1.33,9.375,9.375,0,0,1-3.167-3.63A11.934,11.934,0,0,1,774.383,1006.25Zm68.167,22.5a16.854,16.854,0,0,0,7.083-6.58,20.162,20.162,0,0,0,2.584-10.5,23.174,23.174,0,0,0-2.292-10.71,16.511,16.511,0,0,0-6.292-6.832,17.442,17.442,0,0,0-9.083-2.375,19.437,19.437,0,0,0-8.083,1.583,26.575,26.575,0,0,0-6.334,4l0.917,2.5-1.667-7.083h-10V1047.5h11.584v-24.58l-0.334,3.42a13.618,13.618,0,0,0,5.209,3.45,17.447,17.447,0,0,0,6.375,1.21A22.807,22.807,0,0,0,842.55,1028.75Zm-16.542-7.62a8.222,8.222,0,0,1-3.041-2.04,9.291,9.291,0,0,1-1.917-3.09v-8.91a11.013,11.013,0,0,1,2.375-3.05,9.6,9.6,0,0,1,3.167-1.83,12.417,12.417,0,0,1,4.125-.62,9.453,9.453,0,0,1,8.375,4.87,10.791,10.791,0,0,1,1.291,5.38,9.467,9.467,0,0,1-1.458,5.2,10.054,10.054,0,0,1-3.833,3.55,11.057,11.057,0,0,1-5.209,1.25A10.489,10.489,0,0,1,826.008,1021.13Z" transform="translate(-237.688 -876.156)"/>
</svg>
