<svg width="296" height="106" viewBox="0 0 296 106" fill="none" xmlns="http://www.w3.org/2000/svg">
<path d="M20.664 54.864C16.824 54.864 13.56 54.144 10.872 52.704C8.232 51.264 6.216 49.272 4.824 46.728C3.432 44.184 2.736 41.256 2.736 37.944C2.736 34.776 3.552 31.92 5.184 29.376C6.816 26.832 9 24.816 11.736 23.328C14.472 21.792 17.52 21.024 20.88 21.024C25.392 21.024 29.088 22.344 31.968 24.984C34.896 27.576 36.792 31.344 37.656 36.288L14.616 43.632C16.152 45.408 18.24 46.296 20.88 46.296C21.984 46.296 23.04 46.104 24.048 45.72C25.104 45.336 26.136 44.832 27.144 44.208L31.608 51.696C29.928 52.656 28.104 53.424 26.136 54C24.216 54.576 22.392 54.864 20.664 54.864ZM12.672 37.368C12.672 37.608 12.672 37.824 12.672 38.016L26.496 33.336C26.064 32.136 25.368 31.104 24.408 30.24C23.448 29.328 22.008 28.872 20.088 28.872C17.832 28.872 16.032 29.64 14.688 31.176C13.344 32.712 12.672 34.776 12.672 37.368ZM51.2449 22.536L51.9649 27.576C53.0689 25.608 54.6289 24.024 56.6449 22.824C58.6609 21.624 61.1089 21.024 63.9889 21.024C66.9649 21.024 69.4369 21.912 71.4049 23.688C73.4209 25.416 74.4529 27.672 74.5009 30.456V54H64.4209V34.2C64.3729 32.808 63.9889 31.704 63.2689 30.888C62.5969 30.024 61.4449 29.592 59.8129 29.592C57.4609 29.592 55.5889 30.696 54.1969 32.904C52.8529 35.064 52.1809 37.824 52.1809 41.184V54H42.1009V22.536H51.2449ZM108.683 51.192C107.291 52.296 105.539 53.184 103.427 53.856C101.363 54.528 99.3229 54.864 97.3069 54.864C91.9309 54.864 87.6109 53.4 84.3469 50.472C81.1309 47.544 79.5229 43.464 79.5229 38.232C79.5229 34.728 80.3149 31.752 81.8989 29.304C83.4829 26.808 85.5469 24.912 88.0909 23.616C90.6829 22.32 93.3949 21.672 96.2269 21.672C99.0589 21.672 101.507 22.056 103.571 22.824C105.683 23.592 107.483 24.6 108.971 25.848L104.075 32.328C103.403 31.8 102.467 31.272 101.267 30.744C100.115 30.168 98.7469 29.88 97.1629 29.88C95.0989 29.88 93.3229 30.672 91.8349 32.256C90.3469 33.792 89.6029 35.784 89.6029 38.232C89.6029 40.584 90.3709 42.576 91.9069 44.208C93.4909 45.84 95.5789 46.656 98.1709 46.656C100.379 46.656 102.203 46.056 103.643 44.856L108.683 51.192ZM126.792 54.864C123.864 54.864 121.2 54.288 118.8 53.136C116.448 51.936 114.576 50.112 113.184 47.664C111.792 45.216 111.096 42.096 111.096 38.304C111.096 34.752 111.816 31.68 113.256 29.088C114.696 26.496 116.592 24.504 118.944 23.112C121.296 21.672 123.792 20.952 126.432 20.952C129.552 20.952 131.904 21.456 133.488 22.464C135.12 23.472 136.416 24.576 137.376 25.776L138.024 22.536H147.384V54H137.304V50.112C136.824 50.592 136.104 51.216 135.144 51.984C134.232 52.752 133.08 53.424 131.688 54C130.296 54.576 128.664 54.864 126.792 54.864ZM129.672 46.656C133.176 46.656 135.72 45.072 137.304 41.904V34.2C136.728 32.664 135.72 31.44 134.28 30.528C132.888 29.616 131.232 29.16 129.312 29.16C127.152 29.16 125.28 29.976 123.696 31.608C122.112 33.192 121.32 35.256 121.32 37.8C121.32 39.48 121.704 40.992 122.472 42.336C123.24 43.68 124.248 44.736 125.496 45.504C126.792 46.272 128.184 46.656 129.672 46.656ZM163.963 22.536L164.755 29.736C165.667 27.912 166.915 26.352 168.499 25.056C170.083 23.712 171.643 22.704 173.179 22.032C174.715 21.312 175.891 20.952 176.707 20.952L176.203 31.032C173.851 30.744 171.835 31.128 170.155 32.184C168.475 33.24 167.179 34.632 166.267 36.36C165.355 38.088 164.899 39.864 164.899 41.688V54H154.891V22.536H163.963ZM196.408 69.84C193.576 69.84 191.176 69.504 189.208 68.832C187.288 68.16 185.656 67.344 184.312 66.384C182.968 65.424 181.768 64.512 180.712 63.648L186.616 56.736C187.72 57.744 188.992 58.704 190.432 59.616C191.92 60.576 193.864 61.056 196.264 61.056C198.664 61.056 200.752 60.432 202.528 59.184C204.352 57.984 205.264 56.208 205.264 53.856V49.392C204.352 50.88 202.936 52.176 201.016 53.28C199.096 54.336 196.6 54.864 193.528 54.864C190.696 54.864 188.056 54.144 185.608 52.704C183.208 51.216 181.288 49.224 179.848 46.728C178.408 44.184 177.688 41.304 177.688 38.088C177.688 34.776 178.456 31.848 179.992 29.304C181.528 26.712 183.52 24.672 185.968 23.184C188.416 21.696 191.008 20.952 193.744 20.952C196.48 20.952 198.832 21.36 200.8 22.176C202.816 22.944 204.304 23.88 205.264 24.984L206.056 22.536H215.344V54C215.344 57.072 214.48 59.784 212.752 62.136C211.024 64.536 208.72 66.408 205.84 67.752C203.008 69.144 199.864 69.84 196.408 69.84ZM187.84 37.8C187.84 40.296 188.68 42.408 190.36 44.136C192.04 45.816 194.104 46.656 196.552 46.656C200.584 46.656 203.488 45.072 205.264 41.904V34.2C204.592 32.664 203.488 31.44 201.952 30.528C200.416 29.616 198.616 29.16 196.552 29.16C194.104 29.16 192.04 29.976 190.36 31.608C188.68 33.192 187.84 35.256 187.84 37.8ZM236.066 54.864C233.138 54.864 230.474 54.288 228.074 53.136C225.722 51.936 223.85 50.112 222.458 47.664C221.066 45.216 220.37 42.096 220.37 38.304C220.37 34.752 221.09 31.68 222.53 29.088C223.97 26.496 225.866 24.504 228.218 23.112C230.57 21.672 233.066 20.952 235.706 20.952C238.826 20.952 241.178 21.456 242.762 22.464C244.394 23.472 245.69 24.576 246.65 25.776L247.298 22.536H256.658V54H246.578V50.112C246.098 50.592 245.378 51.216 244.418 51.984C243.506 52.752 242.354 53.424 240.962 54C239.57 54.576 237.938 54.864 236.066 54.864ZM238.946 46.656C242.45 46.656 244.994 45.072 246.578 41.904V34.2C246.002 32.664 244.994 31.44 243.554 30.528C242.162 29.616 240.506 29.16 238.586 29.16C236.426 29.16 234.554 29.976 232.97 31.608C231.386 33.192 230.594 35.256 230.594 37.8C230.594 39.48 230.978 40.992 231.746 42.336C232.514 43.68 233.522 44.736 234.77 45.504C236.066 46.272 237.458 46.656 238.946 46.656Z" fill="#211C1C"/>
<path d="M219.56 96.36C218.12 96.36 216.773 96.1067 215.52 95.6C214.293 95.0933 213.253 94.3867 212.4 93.48L214.72 90.4C215.573 91.1733 216.36 91.7333 217.08 92.08C217.827 92.4 218.493 92.56 219.08 92.56C219.773 92.56 220.347 92.4533 220.8 92.24C221.253 92.0267 221.48 91.68 221.48 91.2C221.48 90.7467 221.293 90.3867 220.92 90.12C220.573 89.8533 220.12 89.64 219.56 89.48C219 89.2933 218.4 89.1067 217.76 88.92C216.16 88.4133 215 87.68 214.28 86.72C213.587 85.7333 213.24 84.6667 213.24 83.52C213.24 82.64 213.467 81.76 213.92 80.88C214.4 79.9733 215.147 79.2267 216.16 78.64C217.2 78.0267 218.533 77.72 220.16 77.72C221.627 77.72 222.867 77.8667 223.88 78.16C224.893 78.4533 225.853 78.9333 226.76 79.6L224.64 82.88C224.133 82.48 223.56 82.1467 222.92 81.88C222.307 81.5867 221.733 81.4267 221.2 81.4C220.48 81.3733 219.92 81.5067 219.52 81.8C219.12 82.0667 218.92 82.3867 218.92 82.76C218.893 83.2667 219.08 83.6667 219.48 83.96C219.907 84.2533 220.44 84.48 221.08 84.64C221.72 84.8 222.347 84.9867 222.96 85.2C224.213 85.6267 225.213 86.24 225.96 87.04C226.707 87.8133 227.08 88.8533 227.08 90.16C227.08 91.2267 226.8 92.24 226.24 93.2C225.707 94.1333 224.88 94.8933 223.76 95.48C222.667 96.0667 221.267 96.36 219.56 96.36ZM230.171 96V64.44H235.651V81.28C236.264 80.2133 237.131 79.3467 238.251 78.68C239.371 78.0133 240.731 77.68 242.331 77.68C243.984 77.68 245.357 78.1733 246.451 79.16C247.571 80.12 248.144 81.3733 248.171 82.92V96H242.571V85C242.544 84.2267 242.331 83.6133 241.931 83.16C241.557 82.68 240.917 82.44 240.011 82.44C238.704 82.44 237.664 83.0533 236.891 84.28C236.144 85.48 235.771 87.0133 235.771 88.88V96H230.171ZM250.961 87.04C250.961 85.2533 251.374 83.6533 252.201 82.24C253.054 80.8267 254.241 79.72 255.761 78.92C257.281 78.0933 259.027 77.68 261.001 77.68C263.001 77.68 264.734 78.0933 266.201 78.92C267.667 79.72 268.787 80.8267 269.561 82.24C270.361 83.6533 270.761 85.2533 270.761 87.04C270.761 88.8267 270.361 90.44 269.561 91.88C268.787 93.2933 267.667 94.4133 266.201 95.24C264.734 96.0667 262.974 96.48 260.921 96.48C259.001 96.48 257.281 96.1067 255.761 95.36C254.267 94.6133 253.094 93.5333 252.241 92.12C251.387 90.7067 250.961 89.0133 250.961 87.04ZM256.601 87.08C256.601 88.4667 257.001 89.6267 257.801 90.56C258.601 91.4667 259.614 91.92 260.841 91.92C262.147 91.92 263.187 91.4667 263.961 90.56C264.734 89.6267 265.121 88.4667 265.121 87.08C265.121 85.6933 264.734 84.5467 263.961 83.64C263.187 82.7067 262.147 82.24 260.841 82.24C259.614 82.24 258.601 82.7067 257.801 83.64C257.001 84.5467 256.601 85.6933 256.601 87.08ZM284.532 96.48C283.546 96.48 282.559 96.3067 281.572 95.96C280.612 95.5867 279.799 95.0667 279.132 94.4V104.4H273.572V78.12H278.372L278.852 80.2C279.759 79.48 280.759 78.88 281.852 78.4C282.972 77.8933 284.239 77.64 285.652 77.64C287.279 77.64 288.732 78.0267 290.012 78.8C291.292 79.5467 292.292 80.64 293.012 82.08C293.759 83.4933 294.132 85.2 294.132 87.2C294.132 89.1733 293.719 90.8533 292.892 92.24C292.066 93.6267 290.932 94.68 289.492 95.4C288.052 96.12 286.399 96.48 284.532 96.48ZM283.412 92.08C284.319 92.08 285.146 91.88 285.892 91.48C286.666 91.08 287.279 90.52 287.732 89.8C288.212 89.0533 288.452 88.2133 288.452 87.28C288.452 85.7867 287.999 84.6 287.092 83.72C286.186 82.8133 285.092 82.36 283.812 82.36C282.692 82.36 281.759 82.5867 281.012 83.04C280.266 83.4667 279.652 84.12 279.172 85V89.28C279.466 90.1333 279.986 90.8133 280.732 91.32C281.506 91.8267 282.399 92.08 283.412 92.08Z" fill="#211C1C"/>
<circle cx="197" cy="90" r="6" fill="#FC453C"/>
</svg>
